<?xml version="1.0" encoding="utf-8"?>
<!-- Generator: Adobe Illustrator 19.0.0, SVG Export Plug-In . SVG Version: 6.00 Build 0)  -->
<svg version="1.1" id="Capa_1" xmlns="http://www.w3.org/2000/svg" xmlns:xlink="http://www.w3.org/1999/xlink" x="0px" y="0px"
	 viewBox="0 0 595.3 234" style="enable-background:new 0 0 595.3 234;" xml:space="preserve">
<style type="text/css">
	.st0{fill:#FDEFF5;}
	.st1{fill:#FFCA1E;}
	.st2{fill:#25582C;}
	.st3{fill:#F37324;}
	.st4{fill:#31BCAB;}
	.st5{fill:#F38FBB;}
	.st6{fill:#030303;}
	.st7{fill:#020202;}
	.st8{fill:#020302;}
	.st9{fill:#060606;}
	.st10{fill:#040404;}
	.st11{fill:#070707;}
	.st12{fill:#050505;}
	.st13{fill:#080808;}
	.st14{fill:#090A0A;}
	.st15{fill:#0A0A0A;}
	.st16{fill:#0A0B0B;}
	.st17{fill:#FDFDFD;}
	.st18{fill:#32BCAD;}
	.st19{fill:#34BBAC;}
	.st20{fill:#FDC921;}
	.st21{fill:#EEEEEE;}
	.st22{fill:#E0E0DF;}
	.st23{fill:#FCCB21;}
	.st24{fill:#ECECEC;}
	.st25{fill:#3ABCA8;}
	.st26{fill:#FDCB21;}
	.st27{fill:#ADACAC;}
	.st28{fill:#F3F3F3;}
	.st29{fill:#EBECEC;}
	.st30{fill:#939292;}
	.st31{fill:#D4D4D4;}
	.st32{fill:#EEEDED;}
	.st33{fill:#BBBBBB;}
	.st34{fill:#DCDBDB;}
	.st35{fill:#CACACA;}
	.st36{fill:#B6B5B5;}
	.st37{fill:#D6D6D5;}
	.st38{fill:#EAEAEA;}
	.st39{fill:#D7D6D6;}
	.st40{fill:#E7E7E7;}
	.st41{fill:#9D9B9B;}
	.st42{fill:#FECA25;}
	.st43{fill:#F37323;}
	.st44{fill:#F68923;}
	.st45{fill:#FECD1F;}
	.st46{fill:#FBBC1E;}
	.st47{fill:#FCC71E;}
	.st48{fill:#1E6F87;}
	.st49{fill:#1D7286;}
	.st50{fill:#246F82;}
	.st51{fill:#206E88;}
	.st52{fill:#226F8C;}
	.st53{fill:#206E8D;}
	.st54{fill:#206E8B;}
	.st55{fill:#F36D22;}
	.st56{fill:#34BBA6;}
	.st57{fill:#1C7287;}
	.st58{fill:#247084;}
	.st59{fill:#7E7E7E;}
	.st60{fill:#989898;}
	.st61{fill:#F4F3F3;}
	.st62{fill:#F1F0EF;}
	.st63{fill:#ECEBEA;}
	.st64{fill:#EDECEB;}
	.st65{fill:#F9F8F8;}
	.st66{fill:#F8F7F7;}
	.st67{fill:#33BBA6;}
	.st68{fill:#1E6F8C;}
	.st69{fill:#1C7182;}
	.st70{fill:#1F6F8B;}
	.st71{fill:#1C7282;}
	.st72{fill:#20708F;}
	.st73{fill:#1E708E;}
</style>
<g id="XMLID_1_">
	<path id="XMLID_337_" class="st0" d="M138.6,12.4c0-0.3,0-0.6,0-0.9c4.7,0,9.3,0,14,0c0,0.3,0,0.6,0,0.9
		C148,14.9,143.3,14.9,138.6,12.4z"/>
	<path id="XMLID_336_" class="st1" d="M77.5,185.5c-3.3-1.9-6.5-3.9-9-6.8c1.7-4.1-0.1-7.1-4.2-6.9c-2-1.4-4.1-2.6-6.7-2.3l0,0
		c-1-1.7-2.3-3.1-4.1-4c-19.1-18.3-32.9-39.8-39.9-65.6c-0.1-0.5,0-1,0-1.5c-1.3-1.8,0.5-4.2-1.2-5.9l0.1,0.1
		c-1-2.3,0.3-4.8-0.8-7.1c-0.7-3.7-0.5-7.3-0.1-11c1.2-2-0.1-4.3,0.9-6.4c1.5-17.9,16.5-35.4,35.5-41.6c18.9-6.2,37.6-4.5,56.4,0.5
		c2.1,0.6,4.2,1,6.2,1.5c0.3,0.4,0.3,0.8,0.2,1.3c-0.7,1.2-1.8,2-2.9,2.8c-2.2,1-3.1,2.9-3.7,5c-0.4,0.8-0.8,1.6-1.4,2.3
		c-2.7,1.3-2.4,3.9-2.7,6.3c-3,10.4-6.6,20.7-7.7,31.6c-0.3,1-0.7,1.9-1.4,2.7c-0.3,0.3-0.7,0.5-1.1,0.7c-0.6,7.4,0.9,14.9-0.7,22.3
		c-0.1,0.7,0-0.2-0.2,0.5c0.5,0,0.2-0.5,0.6-0.6c0.5-0.1,0.9,0,1.3,0.2c1.3,1.7,0.8,3.9,1.5,5.8c3.4,26.6,12,51.1,28.5,72.5
		c3.1,4,6.8,7.3,10.2,10.9c1.5,1.6,3.3,2.9,3.8,5.1c-0.8,3.3,0.2,5.3,3.8,5.9c2.4,0.4,4.7,1.4,7.3,1c1,0.2,1.9,0.6,1.9,1.8
		c-1.9,3.8-6,3.7-9.2,4.6c-1.7,0.5-4.3,0.3-6.3-0.6c-8.4-1.3-16.3-4.1-23.9-7.7c-2.1-1.7-4.6-2.5-7.1-3.2c-0.8,0-1.5,0-1.9-0.9
		c0.4-3.5,3.4-1.9,5.1-2.9c-3.7,1.5-7.4-1.2-11.2-0.2c-1.4,0.2-2.1-0.7-2.9-1.6c0-5.2-4-4-7-4.4c-0.3-0.2-0.7-0.5-1-0.7
		c-0.5-1.3,0.2-1.7,1.1-1.6C81.5,187.5,79.4,186.8,77.5,185.5z"/>
	<path id="XMLID_335_" class="st2" d="M204.5,196.8c-1,0.6-2.1,1.3-3.1,1.9c-15.1,7.3-29.3,4.2-42.4-4.8
		c-14-9.7-20.3-24.3-22.7-40.7c-3.4-23.2,2.1-44.6,14.1-64.4c5.8-8.9,12.4-17.2,21.6-23c0.5-0.1,1-0.1,1.4,0c2.7,1.4,4.4,4,6.8,6
		c4,3.7,7.8,7.5,11,11.9c0.7,0.9,1.4,1.7,2.1,2.6c2.3,3.2,5.1,6.1,6.9,9.7c0.4,0.8,0.9,1.5,1.4,2.3c2.9,4.9,6.2,9.6,8.6,14.8
		c0.6,1,1,2.1,1.4,3.2c0.7,2.3,1.9,4.3,2.8,6.4c0.7,2.2,1.5,4.3,2.2,6.5c2.2,8.1,4.6,16.1,4.3,24.6c0.1,4,0,8-0.1,12
		c-0.2,2.2-0.8,4.2-1.3,6.3c-1.6,4.2-3.1,8.4-5.1,12.5C211.7,189,209.3,193.9,204.5,196.8z"/>
	<path id="XMLID_334_" class="st3" d="M151.7,88.7c-6.3,11.4-11.6,23.2-13.6,36.2c-3.1,20.6-1.5,40.4,11.3,57.7
		c12.1,16.3,28.4,21.6,48.1,17c1.3-0.3,2.6-0.5,3.9-0.8c-7.5,7.1-16.5,11.2-26.7,12.8c-7.2,1.3-14.4,1-21.3-1.6
		c-2.1-0.8-4.5-1.3-5.7-3.6c-0.7-0.3-1.4-0.7-2-1c-4.1-1.5-8.5-2.7-11-6.9c-7.8-8.4-16-16.3-22-26.2c-11.7-19.3-18.9-40.1-21.1-62.7
		c-0.8-1.7-0.4-3.4-0.3-5.1c-0.2-7.5,0.3-15.1-0.4-22.6c0.2-1.1,0.1-2.3,0.6-3.4c0.4-11.6,4.3-22.3,8.1-33c0.9-1.1,0.6-2.9,2.2-3.5
		c1.4-0.6,2.9-0.6,4.4-0.9c2.1-0.5,4.1-0.6,3.1-3.9c-0.7-2.4,1.3-4.1,3.8-4.2c3.8-0.3,7,1.9,10.2,3.5c2.4,1.2-0.6,2.9-1.3,4.1
		c1.5,0.8,2.7,1,3.8,0.7c5.3-1.2,9.4,0.4,12.2,5.2c1.3,2.3,3.1,3.1,5.9,2.3c3.4-0.9,6.2,0.1,7.9,3.4c0.4,2.4,0.6,4.5,4.1,4.8
		c3.1,0.2,5.2,2.7,4.5,5.9c-1,4.3,1.9,9.3-2.5,13c-0.4,0.2-0.9,0.3-1.4,0.3c-3.2-0.6-4.4,0.8-4.1,4
		C152.7,82.9,152.7,85.8,151.7,88.7z"/>
	<path id="XMLID_333_" class="st4" d="M218.4,172.4c0.4-1.9,0.8-3.7,1.2-5.6c2.5-13,5.3-26.1,4.5-39.5c-0.5-9.2-0.5-18.6-3.5-27.6
		c-0.8-1.4-1.2-3-1.2-4.6c-0.1-1.4,0-2.9-0.9-4.2c-0.8-1.3-1-2.8-1.1-4.2c-0.1-3.2-1.6-6-2.5-9c-2.7-7.5-6.7-14.4-9.5-21.8
		c0.1-0.2,0.2-0.4,0.4-0.6c26.3,0.9,41.3,21.3,45.7,42.8c2.9,14.7,2.6,29.5-1.9,43.9c-2,6.4-5.2,12.3-7.8,18.5c-1.2,1-2.5,2-4,0.8
		c-1.2-1-0.5-2.5-0.2-3.8c0.7-2.7,3.1-4.6,3-6.9c-0.7,2.4-2.5,4.5-6,5.2c-3.9,0.8-2.7,4.1-2.2,6.5c1.1,4.6,1,9.1-0.5,13.6
		c-0.9,2-2.4,3.4-4.1,4.7c-1.1,0.5-1.6-0.4-2.2-0.9c-3.6-0.5-4.4-3.8-6.3-6.1C218.8,173.1,218.6,172.8,218.4,172.4z"/>
	<path id="XMLID_332_" class="st5" d="M173.5,66.3c-0.3-0.1-0.6-0.1-0.8-0.1c-3.4-1.2-5.8-3.9-8.4-6.1c-4-3.3-8.1-6.4-12.5-9
		c-11.1-8-22.9-14.6-35.9-19.2c-1.8-0.6-4-0.8-5-2.8c0-0.2-0.1-0.5-0.1-0.7c8-7.7,16.8-13.9,27.9-16.1c4.7,0,9.4,0,14,0
		c22.4,5,37.7,19.3,49.6,38c1.1,1.7,2.3,3.3,3.4,4.9c0,0-0.3,0.3-0.3,0.3c-2.1,1.8-4.8,1-7.2,1.4c-5.4,1.1-10.6,2.6-15.6,4.9
		c-1.9,0.8-3.6,2-5.5,3C176,65.5,174.9,66.3,173.5,66.3z"/>
	<path id="XMLID_331_" class="st6" d="M359.6,164.4c1.3-7.8,2.8-15.6,3.8-23.5c0.4-3.2,1.4-4.5,4.6-4.1c0.8,0.1,1.7,0.1,2.5,0
		c4.7-0.8,6.2,0.9,6.1,5.9c-0.3,16.6-0.3,33.2,0,49.8c0.1,4.7-1.9,4.8-5.5,5c-4.1,0.2-4.9-1.5-4.4-4.9c0.2-1.3,0.1-2.7,0.1-4
		c0.3-4.6-0.8-9.1-0.1-13.7c0-0.3,0-0.7,0.1-1c-0.2,0.7,0,1.4-0.1,2c-0.2,3-0.1,6-1.9,8.6c-0.5,2.8-0.9,5.6-1.4,8.3
		c-0.4,2.4-0.4,4.7-4.3,4.7c-3.7-0.1-4.6-1.5-4.6-4.7c0-1.5-0.6-2.9-0.9-4.4c-1.4-3.7-2.1-7.6-2.8-11.4c-0.1-0.8,0-1.6-0.1-2.2
		c-0.2,2.6,0.7,5.2,1,7.9c-1.1,4.8,0.5,9.8-1.2,14.6c-3.2-0.5-6.5,1-9.5-1c-2.3-2.9-2.1-5.9-0.1-8.9c0.1-15.1,0.4-30.2,0.1-45.3
		c-0.1-4.6,1.4-5.6,5.6-5.4c7.3,0.3,7.1,0.1,8.2,7.5c0.9,6.4,2,12.7,3.1,19.1C358.4,163.6,357.9,166.2,359.6,164.4z"/>
	<path id="XMLID_330_" class="st7" d="M306.5,86.4c0.3-5.5,0.6-10.9,1-16.4c0.3-5.3,4.3-1.9,6.5-2.6c2.6-0.8,2.9,1,2.7,3.1
		c-1.1,18.2-2.1,36.4-3,54.6c-0.1,1.7-0.7,2.2-2.3,2.4c-8.1,1.1-9,0.4-10.3-7.4c-0.6-3.9,0.3-8-1.3-11.8c-1.5-0.6-1.5,0.5-1.6,1.4
		c-0.2,1.5,0.3,3.1-0.4,4.6c-0.3,2.8-1,5.6-0.9,8.4c0.2,4-1.4,5-5.2,4.9c-6.7-0.3-6.8-0.1-7.2-6.8c-1-16.4-1.9-32.8-2.8-49.2
		c-0.1-2.3-0.7-4.8,3.2-4.3c2.9,0.4,6.4-1.2,6.2,4.2c-0.2,4.6,0.5,9.3,0.7,13.9c0.5,1.4,0.4,3,0.8,4.4c0.1,1.4,0,2.9,0,4.3
		c0,0.7-0.1-0.2,0,0.5c0-0.3,0-0.7,0-1c0.1-1.8-0.4-3.7,1-5.2c1.4-5.7,0.9-11.5,1.4-17.3c0.2-2.7,1-4,4.1-3.9c3,0.1,3.9,1,4.1,3.9
		c0.5,6.7,0.2,13.6,1.5,20.2c1.2,2.3,1.3,4.6,0.3,6.1C306.4,94.5,305.5,90.3,306.5,86.4z"/>
	<path id="XMLID_329_" class="st6" d="M492.6,127.5c-10.9,0.5-10.9,0.5-10.9-10.2c0-14.8,0.2-29.6-0.1-44.4
		c-0.1-4.8,1.5-6.1,5.8-5.5c0.8,0.1,1.7,0,2.5,0c12,0,15.8,2.7,19.8,14c1.9,3,1.8,6,0,9c-1.2,3.5-2.2,7-5,9.6
		c-1.3,1.2-1.1,2.5-0.8,4.1c1.5,6.3,2.8,12.6,4.3,18.9c0.8,3.2,0.6,4.5-3.4,4.8c-5.1,0.3-7.6-1-8-6.3c-0.3-3.7-1.5-7.3-2.2-11
		c-2.5-0.6-1.3,1.4-1.4,2.2C492.7,117.6,493.7,122.6,492.6,127.5z"/>
	<path id="XMLID_328_" class="st6" d="M403.7,112.5c0,3-0.1,6,0,9c0,5.8-3.3,8-9,6.2c-1.6-0.5-1.4-1.6-1.4-2.7c0-18.3,0-36.5,0-54.8
		c0-1.6,0.3-2.4,2.2-2.4c5,0,10.1-0.4,14.8,1c5.2,1.5,7.8,5.9,9.4,10.8c0.5,2.6,3.5,5,0.9,8c-0.8,4.6-1.8,9.1-5.2,12.6
		c-1.8,1.8-0.9,3.7-0.5,5.6c1.3,6.3,2.7,12.6,4.3,18.8c0.6,2.5-0.1,3.1-2.6,3.2c-7.7,0.3-7.7,0.4-9.1-7c-0.5-2.7-1.2-5.5-1.8-8.2
		c-1.6-1.4-0.7-3.4-1.2-5.1c-0.1-0.7-1.1,0.4-0.5,0.1C404.9,109.2,404.8,110.8,403.7,112.5z"/>
	<path id="XMLID_327_" class="st6" d="M521.5,156.4c0.4-5.5,0.9-10.9,1.1-16.4c0.1-2.4,1.1-3,3.3-3.2c8.2-0.5,8.4-0.4,7.6,7.8
		c-1.6,16.4-3.3,32.7-4.9,49.1c-0.1,0.7,0.1,1.6-0.2,1.9c-4.1,3.8-9.1,0.8-13.6,1.7c-2.4,0.5-2.6-1.5-2.8-3.2
		c-1.4-13.7-2.8-27.4-4.1-41.1c-0.4-4.1-0.6-8.3-1.2-12.4c-0.4-2.8,0.3-3.8,3.3-3.8c7.2,0,7.3-0.2,8.1,7.1c0.4,3.8,0.5,7.6,0.8,11.4
		c1,2.5-0.5,5.2,1,7.6c0.6,1.3,0.6,2.6,0.2,3.9c0.4-0.9,0-2,0.5-2.9C521.8,161.6,520.5,158.8,521.5,156.4z"/>
	<path id="XMLID_326_" class="st6" d="M559.3,197.3c-0.2,0-0.3,0-0.5,0c-9.3,0.1-9.3,0.1-10.4-8.9c-0.1-1.2-0.4-2.3-0.6-3.5
		c-0.2-1.5-1-2-2.4-1.9c-1.4,0.1-2,0.8-2.1,2.2c-0.2,2.3-0.4,4.7-0.8,6.9c-0.3,1.7,0.8,4.3-1.4,4.8c-2.7,0.6-5.6,0.4-8.4,0
		c-1.4-0.2-0.9-1.9-0.8-3c1.7-17.6,3.4-35.1,4.9-52.7c0.3-3.6,1.7-4.9,5.3-4.5c3.6,0.4,8-1,10.8,0.6c3.2,1.8,1.5,6.7,1.9,10.3
		c1.5,12.2,2.6,24.5,3.8,36.7c0.7,2.8,0.2,5.8,1.9,8.5C561.3,194.3,560.9,196.2,559.3,197.3z"/>
	<path id="XMLID_325_" class="st8" d="M338.9,127.5c-3.8,0.8-5.8-0.1-5.4-4.4c0.2-2.4-0.6-4.9-0.8-7.4c-0.1-1.3-0.3-2.2-1.9-2.3
		c-1.7-0.1-2.4,0.6-2.6,2.2c-0.2,2.8-0.5,5.6-0.7,8.4c-0.4,6.2-5.1,2.9-8,3.5c-3.6,0.8-3-1.9-2.8-4c1.7-17.8,3.4-35.7,5-53.5
		c0.2-1.8,0.7-2.8,2.7-2.6c1.8,0.1,3.7,0,5.5,0c9.3,0,9,0,9.7,9.1c1.2,15.2,2.4,30.5,4.3,45.6C344.6,127.2,343.3,128.5,338.9,127.5z
		"/>
	<path id="XMLID_324_" class="st6" d="M448.8,117.4c-2.5,7.7-6,10.7-12.3,11c-9,0.3-14.2-4.9-14.6-15.1c-0.3-6.6-0.3-6.5,6-6.5
		c3,0,4.3,0.8,4,3.9c-0.2,2-0.1,4,0.2,6c0.2,1.8,1.2,3.1,3.3,2.9c2-0.2,2.3-1.6,2.4-3.2c0.3-3.5-0.8-6.5-2.7-9.3
		c-4.4-6.4-9.9-12.1-12.5-19.7c-0.9-1.9-2-3.8-0.9-6c1.7-12,9.6-17.7,19.1-14c4.7,1.8,6.6,5.7,8,10c-0.3,3.3,2.5,6.2,1.4,9.7
		c-1.9,2.2-4.6,1.5-7,1.5c-2.5,0-4.6-0.8-5.5-3.4c-0.7-2.2,0.2-4.9-1.8-7.6c-1.6,3.9-0.5,6.7,1.3,9.3c2.2,3.1,4.8,6,7,9.1
		c2.6,3.7,4.8,7.6,5.7,12.1C450.4,111.3,449.3,114.4,448.8,117.4z"/>
	<path id="XMLID_323_" class="st6" d="M437.4,144.4c2.7-5,6.5-8.2,12.6-8.1c8.5,0.1,13.4,5.3,13.6,14.9c0.1,6.2,0.1,6-6.1,5.9
		c-2.6,0-3.6-1-3.6-3.5c0-1,0.1-2,0-3c-0.3-2.5,0.9-6.1-3.2-6c-4.4,0.1-3.2,3.9-3.1,6.5c0.2,3.4,2.3,6,4.6,8.6
		c5.7,6.5,11.3,13.1,11.4,22.5c0.1,8-2.9,13.3-8.6,15.2c-6.8,2.2-12.7-0.1-17.3-6.9c-3.3-3.6-2.7-8.2-2.2-12.3
		c0.5-3.4,4-2.9,6.6-2.9c2.6,0,5.1,0.2,5.7,3.5c0.3,2,0,4,0.5,6c0.2,0.8,0.4,1.8,1.5,1.6c1-0.1,1.1-1.1,1.1-1.9
		c-0.2-3.3-1.6-6.1-3.5-8.7c-2.2-3.1-4.7-6.1-6.8-9.2c-3.8-5.5-5.9-11.5-5.1-18.3C435.6,146.6,435.9,145.2,437.4,144.4z"/>
	<path id="XMLID_322_" class="st8" d="M479.7,91.5c-1.7,8.2-5.9,14-14.9,15c-2.2,0.2-2.2,1.5-2.2,3.1c0,4.7-0.2,9.3,0.1,14
		c0.2,3.2-0.7,4.6-4.1,4.1c-2.3-0.3-4.6-0.2-7-0.2c-1.2-12.9-2.1-25.8-1.3-38.7c0.5-7.1,0.2-14.2,1.3-21.2c3,0,5.9-0.1,8.9-0.1
		c11.4,0,16.2,3.8,19.1,15C480.3,85.4,480.3,88.5,479.7,91.5z"/>
	<path id="XMLID_321_" class="st9" d="M435.6,196.4c-6.2,1.9-12.5,0.6-18.7,0.8c-2.8,0.1-1.9-2.7-1.9-4.3c-0.1-14.3,0-28.6-0.1-43
		c0-1.5-0.2-3-0.2-4.5c-1.9-2.3-1.9-4.7,0-7c0.6-0.5,1.2-1.5,1.8-1.5c6.3,0.1,12.7-0.9,19,0.5c1.4,2.3,0.5,4.8,0.7,7.3
		c0.2,2.1-1.7,2.8-3.4,2.9c-3.2,0.3-4.9,1.6-4.7,5c0.2,3-1.1,6.6,3.6,7.5c3.7,0.8,4.3,3.6,4.3,6.9c0,3.3-1.4,5.3-4.8,5.8
		c-3.6,0.5-3.2,3.4-3,5.8c0.1,2.5-1.2,5.6,2.3,6.9c1.9,0.8,4.9,0.1,5.6,2.5C436.7,190.8,436.4,193.7,435.6,196.4z"/>
	<path id="XMLID_320_" class="st10" d="M553.5,68.4c6.3-2.2,12.8-1.1,19.1-0.7c3.1,0.2,1.1,4.5,1.5,6.9c0.3,1.7-0.6,3.1-2.6,2.6
		c-6.6-1.5-7,2.4-6.5,7.2c0.1,1.3,0.1,2.7,0,4c-0.4,3.1,0.9,4.4,4,3.9c4-0.7,4.2,1.7,4.1,4.7c-0.1,2.9,0.3,6-4.2,5.2
		c-3.1-0.5-4.2,0.9-3.8,3.9c0.2,1.6,0.2,3.3,0,5c-0.5,4.6,0.1,7.8,6.1,6.8c4.4-0.7,2.8,3,3,5.2c0.2,2.3,0.6,4.7-3.3,4.5
		c-4.3-0.3-8.7-0.3-13,0c-3.4,0.2-4.2-1.1-4.2-4.2c0.1-15.7-0.1-31.3-0.1-47C551.8,73.8,551.7,71.1,553.5,68.4z"/>
	<path id="XMLID_319_" class="st10" d="M369.6,68.5c6.1-2.3,12.4-1.1,18.5-0.8c3.1,0.2,0.9,4.1,1.5,6.3c0.4,1.7-0.3,3.1-2.4,2.6
		c-6.4-1.4-7.2,2.2-6.6,7.2c0.2,1.6,0.2,3.3,0,5c-0.4,3.1,1,4.3,4,3.8c3.4-0.6,4.2,1,4.1,4.2c-0.1,3-0.1,5.4-4.1,4.7
		c-3.1-0.5-4.2,0.8-3.9,3.9c0.2,2,0.2,4,0,6c-0.6,4.9,0.2,7.9,6.3,7.1c4.5-0.6,2.2,3.4,2.6,5.4c0.4,2.1,0.3,3.9-2.9,3.8
		c-4-0.2-8-0.3-12,0c-3.9,0.3-5.1-0.9-5-4.9c0.2-15.4-0.1-30.9-0.1-46.3C367.7,73.8,367.7,71.1,369.6,68.5z"/>
	<path id="XMLID_318_" class="st9" d="M483.8,147.5c-0.1,14.9-0.4,29.9-0.2,44.8c0,4.2-1.2,5.5-5.3,5.1c-3.3-0.3-6.8,1-6.6-4.9
		c0.5-13.8,0.1-27.6,0.2-41.4c0-3.4-0.7-5-4.3-4.5c-5,0.7-2.8-3.2-3.1-5.3c-0.3-2.1-0.9-4.6,3.1-4.5c7.1,0.2,14.3-0.1,21.4-0.2
		c3.6,1.9,3,5.2,2.4,8.2c-0.6,3-3.4,1.9-5.4,2.1C485.4,147,484.5,146.9,483.8,147.5z"/>
	<path id="XMLID_317_" class="st9" d="M367.2,77.3c-6.8,0.1-6.8,0.1-6.8,6.7c0,13.2-0.2,26.3,0.1,39.4c0.2,5.6-3.4,4-6.2,4.1
		c-3,0.2-5.7,0.7-5.6-4.3c0.4-14,0-28,0.2-41.9c0-3.2-0.7-4.5-4.1-4.1c-5.3,0.7-2.8-3.5-3.2-5.7c-0.5-2.4-0.4-4.4,3.4-4.2
		c7.5,0.4,15,0.2,22.5,0.2C369,70.8,369.4,74.1,367.2,77.3z"/>
	<path id="XMLID_316_" class="st11" d="M525.7,67.5c8.6,0,17.2,0,25.7,0.1c1.8,2.9,1.6,5.9,0.3,8.9c-0.1,0.1-0.2,0.2-0.4,0.3
		c-2.1,1.6-5.8-1.4-6.9,1.9c-0.8,2.2-0.2,4.9-0.2,7.4c0,12-0.3,24,0.1,36c0.2,5-1.8,5.6-6,5.6c-4.1,0-5.8-0.6-5.7-5.3
		c0.4-12.8,0.1-25.6,0.1-38.5c0-6.7,0-6.7-6.9-6.6C523.4,74.1,523.8,70.8,525.7,67.5z"/>
	<path id="XMLID_315_" class="st12" d="M404.5,147.4c-1.7,4-0.4,8.1-0.7,12.1c-0.2,2.6,2,2.3,3.6,2.1c4.5-0.6,4.1,2.3,4.2,5.2
		c0.1,3,0,5.4-4.1,4.7c-3.3-0.6-3.8,1.4-3.8,4.1c0.1,5.3-0.4,10.7,0.1,15.9c0.5,5.1-1.5,6-6.1,5.9c-4-0.1-5.3-1-5.3-5.2
		c0.3-15.6,0.1-31.2,0.1-46.9c0-8.6,0-8.5,8.7-8.6c3.3,0,6.6-0.2,9.9-0.3c3.7,2.3,2.3,5.7,1.8,8.9c-0.2,1.4-1.5,1.4-2.7,1.5
		C408.4,147.1,406.4,146.5,404.5,147.4z"/>
	<path id="XMLID_314_" class="st10" d="M281.5,166.8c0-8.7,0.1-17.3-0.1-26c-0.1-3,0.8-4.2,3.9-4c4.1,0.2,8.3,0.3,12.5,0
		c4.9-0.4,3.6,2.9,3.8,5.5c0.2,2.8-0.1,5-3.8,4.3c-4.1-0.7-5.9,0.9-5.2,5.1c0.2,1.6,0.2,3.3,0,5c-0.5,3.7,0.5,5.5,4.7,5.1
		c4.7-0.4,2.7,3.5,3,5.7c0.4,2.3,0.2,4.6-3.2,4c-3.9-0.7-4.8,1.1-4.6,4.7c0.3,5.8-0.1,11.6,0.1,17.5c0.1,2.8-0.7,3.8-3.6,3.7
		c-9.3-0.3-7.4,0.9-7.5-7.2C281.4,182.4,281.5,174.6,281.5,166.8z"/>
	<path id="XMLID_313_" class="st13" d="M338.4,197.3c-5.7,0-11.3-0.1-17,0c-2.6,0.1-3.4-0.9-3.4-3.5c0.1-17.8,0.1-35.6,0-53.4
		c0-2.8,0.9-3.7,3.8-3.7c9.4,0.2,7.6-0.8,7.7,7.6c0.1,12.5,0.2,25-0.1,37.4c-0.1,4.3,0.8,6.6,5.5,5.7c1.1-0.2,2.3,0,3.5,0
		C340.2,190.8,340.2,194.1,338.4,197.3z"/>
	<path id="XMLID_312_" class="st12" d="M561.6,137.5c10.6-2.2,11-1.8,11,8.4c0,12.4,0.1,24.9-0.1,37.3c-0.1,3.6,1.1,4.5,4.5,4.4
		c4.7-0.2,7.1,4,5.1,8.4c-0.8,1.7-2.1,1.3-3.4,1.3c-5.6,0-11.3,0-16.9,0c-1.2-0.9-1.3-2.3-1.2-3.6c1-18.1,0.2-36.2,0.5-54.4
		C561.1,138.7,561.2,138,561.6,137.5z"/>
	<path id="XMLID_311_" class="st14" d="M303.8,167.1c0-8.7,0.1-17.3-0.1-26c-0.1-3.1,0.7-4.5,4.1-4.4c9,0.3,7.4-0.7,7.5,7.4
		c0.1,16.3-0.2,32.6,0.1,48.9c0.1,5.5-3.3,4.1-6.2,4.2c-3,0.1-5.9,0.7-5.6-4.3C304.1,184.4,303.8,175.8,303.8,167.1z"/>
	<path id="XMLID_310_" class="st15" d="M492.7,138.5c3.2-3.2,7.1-1.4,10.7-1.2c1.4,0.1,1,1.9,1,3c0,17.8,0,35.6,0.1,53.4
		c0,2.8-0.9,4-3.7,3.7c-1.1-0.1-2.4-0.2-3.5,0c-3.7,0.6-4.4-1.1-4.4-4.5c0.2-14,0.1-28,0.1-42c0-1.5-0.2-3-0.3-4.5
		C491.1,143.8,491.1,141.1,492.7,138.5z"/>
	<path id="XMLID_309_" class="st16" d="M511.7,80.5c0.1-1.7,0.2-3.3,0.2-5c0-8.6,3-10.4,11.7-7c1.5,2.7,1.5,5.3,0,8
		c-0.1,15.5-0.4,30.9-0.1,46.4c0.1,5.4-2.8,4.7-6.1,4.8c-3.6,0.2-5.8,0-5.6-4.8c0.3-10.8,0-21.6-0.1-32.4
		C510,87.1,510.2,83.8,511.7,80.5z"/>
	<path id="XMLID_308_" class="st17" d="M435.6,196.4c0-1-0.3-2-0.1-3c0.8-4.7-0.9-6.8-5.8-5.9c-2.7,0.5-3.6-0.8-3.3-3.4
		c0.2-2,0.1-4,0-6c-0.2-4.1-0.5-7.4,5.7-6.8c4.1,0.4,1.7-3.7,2.2-5.8c0.4-2,0.3-4.4-2.8-3.8c-5.1,1-5.4-2-5-5.7c0.1-1.3,0.2-2.7,0-4
		c-0.6-4,0.7-6,5-5.3c3.4,0.6,4.5-1.1,4.1-4.3c-0.2-1.6,0-3.3,0-5c2.5,1.8,0,5,2,6.9c-2,7.9-0.5,15.1,4.3,21.6
		c2.6,3.5,5.2,6.9,7.6,10.4c1.2,1.8,2,3.8,2.7,5.8c0.8,2.3,0.9,4.6-1,6.5c-0.8,0.8-1.8,1-2.7,0.3c-2.1-1.5-1.6-3.8-1.8-5.9
		c-0.4-2.7,2.2-7.1-4-6.8c-6.2,0.3-6.3,0-6,6.2c0.1,2.6,0.7,5.2,1,7.8C435.5,191.9,437.7,194.9,435.6,196.4z"/>
	<path id="XMLID_307_" class="st18" d="M231.8,175.8c-0.2-3.1-0.4-6.1,0.2-9.3c0.5-2.6-1.8-5.5-1.4-8.6c0.2-1.7,0-3.6,2.4-3.5
		c4.4,0.3,6.2-2.4,7.4-5.9c0.4-1.2,0.8-2.5,2.3-1.7c1.2,0.6,1.2,2.2,0.3,3c-3.1,2.8-3.7,6.8-5.2,10.4c1.3,1,2.6-0.2,3.8,0.2
		C239.6,166.3,235.9,171.2,231.8,175.8z"/>
	<path id="XMLID_306_" class="st19" d="M218.4,172.4c0.4,0,0.8,0.1,1.3,0.1c0.5,0.5,0.8,1,0.9,1.7c0.6,3.5,2.1,5.6,6.1,4.3
		c0,0.8,0.2,1.6,1.1,2c-4.4,5.4-9.9,9.6-16.1,12.8c-2.7-3.7,1.9-5.9,1.9-9.1C215.1,180.3,216.8,176.3,218.4,172.4z"/>
	<path id="XMLID_305_" class="st20" d="M147.7,206.4c8.7,3.6,17.6,5.7,27,5.2c-14.2,3.2-28.3,2.7-42.3-1.1
		C138.1,211.2,142.9,208.7,147.7,206.4z"/>
	<path id="XMLID_304_" class="st21" d="M451.7,67.5c0,20,0,40,0,59.9c-2.3-3.7-0.3-7.9-1.3-11.9c-1.2,0-0.7,1.6-1.6,1.9
		c0-3.3-0.1-6.6-0.1-10c0.8-0.1,1.3,0.2,1.3,1c0.2-0.3,0-0.6-0.1-0.9c-1.4-6.7-0.7-13.5-0.6-20.2c-0.2-3.3-0.4-6.6-0.6-9.9
		c0.5,1,0.9,1.9,1.5,3C451.6,76.2,449.1,71.5,451.7,67.5z"/>
	<path id="XMLID_303_" class="st22" d="M561.6,137.5c0,18.3-0.1,36.6-0.1,54.9c0,1.7,0.2,3.3,0.3,5c-0.9,0-1.7,0-2.6,0
		c0.9-4.3-1.4-8.5-0.6-12.9c1.7,1.2,0.2,3.5,1.9,5.3c0-16,0-31.6,0-47.2C560.6,140.9,559.9,138.9,561.6,137.5z"/>
	<path id="XMLID_302_" class="st23" d="M93.5,195.5c1.5-3.9,3.8-1.7,5.9-0.7c2.5,1.2,5.2-0.7,7.6,0.7c0.7,0.4,1.6,0.6,1.5,1.6
		c-0.3,1.6-1.4,1.1-2.2,0.6c-2.5-1.4-4.7-0.9-6.6,1C97.5,197.6,95.5,196.5,93.5,195.5z"/>
	<path id="XMLID_301_" class="st24" d="M350.4,197.3c0-5.3,0.1-10.5,0.1-15.8c-0.1-1.8-1.6-3.9,1.1-5.1c1.1,3.9,1.6,7.9,1.9,12
		c-0.4-0.7-0.9-1.3-1.4-2.2C350.4,189.9,353.3,194.1,350.4,197.3z"/>
	<path id="XMLID_300_" class="st25" d="M213.5,184.2c0.6,3.3-2.6,5.8-1.9,9.1c-2.1,1.6-4.4,3-7.1,3.5
		C207.5,192.6,210.5,188.4,213.5,184.2z"/>
	<path id="XMLID_299_" class="st26" d="M64.7,171.4c2.1-3.1,3.6-2,4.9,0.7c0.3,0.6-0.7,1.5,0.3,2.2c4.1,2.7,0.1,3.2-1.3,4.4
		c-1.3-0.3-2.2-1.2-3-2.2c0.5-1.6,0.4-3.1-0.7-4.4C64.8,171.9,64.7,171.6,64.7,171.4z"/>
	<path id="XMLID_298_" class="st23" d="M83.5,189.5c1.5-0.8,3-1.2,4.7-1.1c1.7,0.1,3.4,0.4,4.2,2c1,2.2-2.3,0.4-2.1,2
		c0,0.5,0.2,1,0.3,1.4C88.1,192.6,85.5,191.5,83.5,189.5z"/>
	<path id="XMLID_297_" class="st27" d="M492.6,127.5c0-7.3,0-14.5,0-22.1c2.9,1.2,1.8,3.4,1.9,5.2c-2,3.7-0.3,7.7-0.8,11.6
		C493.5,123.9,494.8,126.1,492.6,127.5z"/>
	<path id="XMLID_296_" class="st28" d="M404.5,147.4c0.6-1.1,1.7-0.6,2.6-0.8c1.9-0.5,5,1.4,5.5-1.4c0.5-2.8,1.7-6.2-1.3-8.6
		c1.8-0.5,2.3,1.3,3.4,1.9c0.4,2.3,0.5,4.6,0,7C411.8,148.8,408,147.1,404.5,147.4z"/>
	<path id="XMLID_295_" class="st29" d="M492.7,138.5c0.5,2.7,0.5,5.3,0,8c-2.8,1.6-5.9,0.9-8.9,1c0.2-0.8,0.8-0.7,1.4-0.9
		c1.8-0.5,4.9,1.4,5.4-1.4c0.4-2.7,1.7-6.2-1.4-8.5C491,136,491.5,137.8,492.7,138.5z"/>
	<path id="XMLID_294_" class="st26" d="M57.6,169.5c3.5-2.2,3.5-2.2,7,2c0.4,1.8-1.1,1.9-2.2,2.4C60.7,172.6,58.8,171.4,57.6,169.5z
		"/>
	<path id="XMLID_293_" class="st30" d="M365.7,175.5c-0.3-1.9,0.3-3.5,1.6-5.1c0.3,6.1,0.7,12.1-0.5,18.1c-0.1-1-0.3-2-0.4-3
		C364.5,182.3,367,178.8,365.7,175.5z"/>
	<path id="XMLID_292_" class="st31" d="M511.7,80.5c0.5,3.3,0.5,6.7,0,10c-0.7,0-1.3,0-2,0c0-3,0-6,0-9
		C510.3,81.1,511,80.8,511.7,80.5z"/>
	<path id="XMLID_291_" class="st32" d="M338.4,197.3c0.7-3.3,0.6-6.6,0.1-9.8c0.7,0,1.5,0,2.2-0.1c0,3,0.1,5.9,0.1,8.9
		C340,196.7,339.2,197,338.4,197.3z"/>
	<path id="XMLID_290_" class="st33" d="M306.5,86.4c0.3,4.2,0.2,8.4-1.7,12.5c0-2.5,0-5,0-7.6C306.3,90.1,304.8,87.7,306.5,86.4z"/>
	<path id="XMLID_289_" class="st34" d="M367.2,77.3c0.8-3.2,0.5-6.5,0.2-9.7c0.7,0.3,1.5,0.6,2.2,0.9c0.5,2.7,0.4,5.3,0,8
		C368.8,76.7,368,77,367.2,77.3z"/>
	<path id="XMLID_288_" class="st21" d="M523.6,76.4c-0.5-2.7-0.4-5.3,0-8c0.7-0.3,1.4-0.7,2.1-1c-0.4,3.3-0.7,6.6,0.2,9.9
		C525.1,77,524.3,76.7,523.6,76.4z"/>
	<path id="XMLID_287_" class="st1" d="M62.5,173.8c0.7-0.8,1.4-1.6,2.2-2.4c3.1,1.5,3.4,3,0.9,5C64.2,176,63.3,174.9,62.5,173.8z"/>
	<path id="XMLID_286_" class="st31" d="M551.7,76.5c-0.1-3-0.2-6-0.3-8.9c0.7,0.3,1.4,0.6,2.1,0.9c0,2.7,0,5.4,0,8
		C552.9,76.5,552.3,76.5,551.7,76.5z"/>
	<path id="XMLID_285_" class="st35" d="M365.7,175.5c2,3.2,0.5,6.7,0.7,10c-0.6-0.4-1.1-0.7-1.7-1.1
		C363.9,181.4,365.4,178.5,365.7,175.5z"/>
	<path id="XMLID_284_" class="st36" d="M403.7,112.5c-0.5-2.2-0.5-4.5-0.1-7.6c2,2.8,2.1,5.1,2,7.5
		C405,112.5,404.4,112.5,403.7,112.5z"/>
	<path id="XMLID_283_" class="st37" d="M421.6,81.5c0.3,2,0.6,4,0.9,6c-0.6,0-1.2,0-1.9,0c-0.3-2.7-0.6-5.3-0.9-8
		C420.4,80.1,421,80.8,421.6,81.5z"/>
	<path id="XMLID_282_" class="st38" d="M293.6,88.4c0,2-0.1,3.9-0.1,5.9c-2.6-0.4-0.6-2.9-1.7-4c0-1.6,0-3.3,0-4.9
		C292.4,86.4,293,87.4,293.6,88.4z"/>
	<path id="XMLID_281_" class="st23" d="M77.5,185.5c1.6,0.3,3.2,0.7,4.8,0.9c3.8,0.6-0.6,1.6,0.1,2.4
		C80.6,188,78.8,187.2,77.5,185.5z"/>
	<path id="XMLID_280_" class="st23" d="M101.5,199.5c3.1-0.4,5.4,0.8,7.1,3.2C106,202.1,103.6,201.1,101.5,199.5z"/>
	<path id="XMLID_279_" class="st36" d="M359.6,164.4c0.3,1.3,0.2,2.6-0.4,4.1c-2.3-1.2-1.4-3.3-1.5-5.1
		C358.3,163.8,358.9,164.1,359.6,164.4z"/>
	<path id="XMLID_278_" class="st39" d="M479.7,91.5c0-3,0-6,0-9C481.3,85.4,481.3,88.5,479.7,91.5z"/>
	<path id="XMLID_277_" class="st40" d="M297.8,114.4c-0.2-2.3-0.2-4.6,0.4-6.9c0.1-0.5,0.3-1.5,1.2-0.9c0.4,0.3,0.3,1.1,0.4,1.7
		C297.6,109.9,299.7,112.8,297.8,114.4z"/>
	<path id="XMLID_276_" class="st41" d="M519.4,163.7c-0.8-2.7-0.8-5.5-0.6-8.4c1.5,2.1,0.8,4.5,1.1,6.8
		C520.1,162.8,519.9,163.4,519.4,163.7z"/>
	<path id="XMLID_275_" class="st41" d="M521.5,156.4c0.2,2.8,0.2,5.6-0.7,8.3c-0.9-0.7-0.7-1.6-0.5-2.5
		C520.6,160.2,520,158.1,521.5,156.4z"/>
	<path id="XMLID_274_" class="st42" d="M11.7,85.5c1.8,2.2,0.6,4.7,0.8,7.1C11.2,90.3,11.9,87.8,11.7,85.5z"/>
	<path id="XMLID_273_" class="st26" d="M53.5,165.5c2.5,0.2,3.8,1.5,4.1,4C55.9,168.5,54.6,167.1,53.5,165.5z"/>
	<path id="XMLID_272_" class="st33" d="M520.3,162.2c0.2,0.8,0.3,1.7,0.5,2.5c0,1.1,0.2,2.2-1,3.3c-0.2-1.6-0.3-3-0.4-4.3
		c0.2-0.5,0.3-1,0.5-1.5C519.9,162.2,520.3,162.2,520.3,162.2z"/>
	<path id="XMLID_271_" class="st42" d="M12.5,68.1c-0.2,2.1,0.9,4.5-0.9,6.4C11.7,72.3,11.3,70.1,12.5,68.1z"/>
	<path id="XMLID_270_" class="st42" d="M12.5,92.5c2.1,1.6,0.8,4,1.2,5.9C12.3,96.6,12.8,94.5,12.5,92.5z"/>
	<path id="XMLID_269_" class="st43" d="M110.9,29.2c15.2,4.6,29.2,11.6,41.8,21.4c0.8,2.1,0,2.7-2,1.9c-0.7-2.8-4.3-3.5-5.3-3
		c-5.5,3-8-0.9-10-4.3c-2-3.3-4.3-3.5-7.3-3c-3.1,0.5-6.1,0.4-8.9-1.5c0.5-2.4,3.3-1.5,4.3-3.8c-3.6,0.3-5.8-2.5-9-3.1
		c-2.8-0.5-5.3,0.9-3.9,3.5c1.9,3.7,1,3.8-2.4,4.4c-2.1,0.4-4.2,0.5-6.3,0.7c-0.8-1.3,0.5-2,0.7-3c0.4-0.7,0.8-1.4,1.2-2
		c1.4-2,2.3-4.3,4.2-5.9C108.9,30.7,109.9,29.9,110.9,29.2z"/>
	<path id="XMLID_268_" class="st20" d="M134.7,198.4c3.6,2.4,7.7,4,11,6.9c-5.4,1.3-10.8-0.7-12.5-4.3
		C132.4,199.3,133.1,198.7,134.7,198.4z"/>
	<path id="XMLID_267_" class="st44" d="M91.6,78.4c0,1,0.1,2.1,0.1,3.1c0.7,7.6,0.7,15.3,0,22.9c0,1.7-0.1,3.4-0.1,5.1
		c-1.6-1.8-0.6-4-1-6c-1.5-7.7-1.5-15.4,0-23C90.9,79.7,91.3,79.1,91.6,78.4z"/>
	<path id="XMLID_266_" class="st45" d="M89.7,103.4c0,1.3,0,2.5,0,3.8c-0.3,0-0.6,0-0.8,0c0-8.9,0-17.8,0-26.7
		c0-0.1,0.2-0.2,0.3-0.2c0.2,0,0.3,0.1,0.5,0.2C90.4,88.1,90.4,95.8,89.7,103.4z"/>
	<path id="XMLID_265_" class="st46" d="M89.7,103.4c0-7.7,0-15.3,0-23c0.3,0,0.6,0,1,0c0,7.7,0,15.3,0,23
		C90.3,103.5,90,103.4,89.7,103.4z"/>
	<path id="XMLID_264_" class="st47" d="M102.5,39.5c-0.2,1-0.5,2-0.7,3c-0.7,1-1.4,1.9-2.1,2.9C98.9,42.6,98.7,40.1,102.5,39.5z"/>
	<path id="XMLID_263_" class="st47" d="M107.9,31.5c-1,2.2-2.1,4.5-4.2,5.9C103.8,34.6,105,32.4,107.9,31.5z"/>
	<path id="XMLID_262_" class="st26" d="M55.5,163.1c1.8,0.3,3.4-0.3,3.8,1.7c0.1,0.3-0.5,0.9-0.9,1
		C56.8,165.9,56.5,164.5,55.5,163.1z"/>
	<path id="XMLID_261_" class="st48" d="M181.6,61.4c7.4-4.3,15.3-6.4,23.9-5.8c4.7,6.7,7.7,14.1,10.2,21.8c0.8,3.1,1.6,6.1,2.9,9
		c0.2,1.4-0.3,3,1,4c1.7,0.9-1.5,3.2,1.1,4c0.2,1.4-0.4,3,0.9,4.1c3.4,17.6,3.9,35.3,1.6,53.1c-0.4,3.4-1.6,2.6-3.5,1.8
		c0.2-8.6-2.7-16.7-4.3-24.9c0.7-0.6,1.7,0.7,2.3-0.4c1.3-1.1,1.1-1.8-0.6-2.1c-2-0.3-2.3-2.5-3.8-3.4c-1.2-1.9-2.4-3.8-2.7-6.1
		c0.4-1.3,0.5-2.4-1.1-2.8c-3-5-5.9-10.1-8.9-15.1c-0.1-0.8,0.2-1.7-1.1-1.9c-2.4-3.3-4.8-6.7-7.2-10c0.2-0.4,0.6-0.6,1.1-0.6
		c0.9-0.3,1.4-1.3,2.9-0.7c-1.2-1-1.7,0-2.3,0.3c-1.5,0.8-2.2-0.9-3.3-1c-3.6-4-7.3-8.1-10.9-12.1c0.1-0.2,0.2-0.4,0.3-0.5
		c0.8-0.8,0.8-1.8,0.7-2.8c0-0.7,0.2-1.3,0.6-1.9c1.1-1.4,2.7-1.8,4.3-2.2c0.6-0.1,1.3,0,1.9,0.1C185.2,64.4,182.3,64.7,181.6,61.4z
		"/>
	<path id="XMLID_260_" class="st43" d="M150.6,52.5c1.2,0,1.9-0.6,2-1.9c7.6,4.1,13.9,9.7,20,15.7c-8.1,6.4-15,14-21,22.5
		c-0.3-4.1-1.3-8.3-0.7-12.3c0.4-2.9,3.5-2,5.5-0.8c-0.5,0.5-0.6,0.6-0.5,0.5c0,0,0.1-0.1,0.3-0.3c0.5-0.5-0.1-0.8,0.3-0.3
		c0,0-0.1,0.1-0.2,0.2c1.9-2.1,3.7-14.7,2.3-16.2c-0.8-0.9-2.5-1.9-3.4-1.7C149.9,59.2,151,55.3,150.6,52.5z"/>
	<path id="XMLID_259_" class="st49" d="M219.7,153.4c0.6-0.6,1.1-1.3,1.7-1.9c0.2,0.6,0.3,1.3,0.8,2.9c2.7-19.4,1.6-37.6-0.5-55.9
		c3.9,13.3,4.4,27,3.5,40.7c-0.5,7.6-1.4,15.2-3.6,22.5c-0.5,1.7-0.7,3.6-2,5C219.6,162.3,219.7,157.8,219.7,153.4z"/>
	<path id="XMLID_258_" class="st50" d="M181.6,67.4c0,0.7,0,1.3,0,2c-0.4,1.1-0.9,2.1-1.8,2.8c0,0-0.1,0.1-0.1,0.1
		c-2.5-1.6-4.4-3.8-6.2-6.1c0.8-1,1.7-1.7,3-1.9c1.2-0.7,2.2-0.5,3.1,0.4C179.8,66.1,180.5,67,181.6,67.4z"/>
	<path id="XMLID_257_" class="st51" d="M217.6,128.4c-0.7,3.4-1.5-0.8-2.2,0c-1.2-1.8-2-3.7-2.1-5.9c2.4-0.4,2.5,2.5,4.3,2.9
		C218.5,126.4,218.5,127.4,217.6,128.4z"/>
	<path id="XMLID_256_" class="st52" d="M199.6,96.6c0.2-0.7,0.3-2,1.2-1.5c1.5,0.9,1.1,2.3-0.1,3.4
		C199.7,98.2,199.6,97.4,199.6,96.6z"/>
	<path id="XMLID_255_" class="st53" d="M209.5,113.6c0.5-0.8,1.5-1.5,1.9-0.9c1,1.3,0.3,2.7-0.8,3.7
		C210.3,115.5,209.9,114.5,209.5,113.6z"/>
	<path id="XMLID_254_" class="st54" d="M193.6,86.4c-0.4,0-0.8,0.1-1.3,0.1c-0.6-0.7-1.2-1.4-1.7-2.1c1.5-1.2,1.9,1,3,1
		c0.3,0.2,0.4,0.4,0.3,0.7C193.8,86.3,193.7,86.4,193.6,86.4z"/>
	<path id="XMLID_253_" class="st55" d="M91.7,104.4c0-7.6,0-15.3,0-22.9C93.2,89.1,93.3,96.8,91.7,104.4z"/>
	<path id="XMLID_252_" class="st56" d="M226.6,178.4c-4.7,3-5.6,2.2-7-6c0.6,0.3,1.6,0.6,1.6,0.8
		C221.2,176.9,223.8,177.8,226.6,178.4z"/>
	<path id="XMLID_251_" class="st57" d="M218.6,86.4c-2.2-2.6-3-5.7-2.9-9C217.3,80.2,218.3,83.2,218.6,86.4z"/>
	<path id="XMLID_250_" class="st57" d="M220.7,94.4c-0.9,0.1-2.3,0.5-2.7,0.1c-1.2-1.6,1.1-1.3,1.4-2.2c0.2-0.6,0.1-1.3,0.2-1.9
		C221,91.5,220.6,93.1,220.7,94.4z"/>
	<path id="XMLID_249_" class="st58" d="M179.6,65.5c-1-0.4-2.1-0.7-3.1-1.1c1.5-1.4,3.1-2.4,5.1-3c2.3,2.2,5.6,2.4,8.2,4.5
		c-1.4-0.1-2.8-0.3-4.2-0.4C183.6,66.2,181.6,66.6,179.6,65.5z"/>
	<path id="XMLID_248_" class="st59" d="M351.6,176.5c-1.8,1.4-0.2,3.5-1.1,5.1c-1-3.8-1-7.7-0.5-12.2
		C352.7,171.7,351.2,174.3,351.6,176.5z"/>
	<path id="XMLID_247_" class="st60" d="M291.8,90.4c1.2,1.1,0.1,3.1,1.7,4c0.2,1.9,0.4,3.8-1.2,6.9
		C291.6,96.8,291.4,93.6,291.8,90.4z"/>
	<path id="XMLID_246_" class="st61" d="M493.3,86.1c0-2.5,0-5,0-7.4c0-0.7-0.2-1.7,0.9-2c0.9-0.3,1.6,0.3,2.1,0.9
		c0.7,0.7,1.5,1.5,1.7,2.4c0.8,4.4,0.8,8.9,0,13.3c-0.3,1.8-1.7,3.6-3.7,3.2c-1.9-0.4-0.9-2.5-1-3.8
		C493.2,90.4,493.3,88.2,493.3,86.1z"/>
	<path id="XMLID_245_" class="st62" d="M403.7,86c0-2.1-0.1-4.3,0-6.4c0-1-0.6-2.5,0.9-3c1.3-0.4,2.2,0.5,3,1.4
		c2.1,2.2,2.1,14.8,0,17.2c-0.8,0.9-1.7,1.7-3,1.3c-1.2-0.4-1-1.6-1-2.5C403.7,91.3,403.7,88.6,403.7,86z"/>
	<path id="XMLID_244_" class="st63" d="M547.6,164.8c0.2,2.2,0.5,4.3,0.7,6.5c0.1,2-1.1,2.5-2.9,2.5c-1.7-0.1-2.3-1-2.1-2.6
		c0.4-5,0.8-9.9,1.2-14.9c0.1-0.7-0.1-1.8,1.1-1.9c1.4-0.1,1.4,1.2,1.5,2.1C547.3,159.2,547.5,162,547.6,164.8
		C547.7,164.8,547.6,164.8,547.6,164.8z"/>
	<path id="XMLID_243_" class="st64" d="M331.4,82.6c0.5,6.5,0.9,13,1.4,19.5c0.1,1.7-0.7,2.3-2.4,2.3c-1.6,0-2.7-0.6-2.5-2.2
		c0.8-6.5,0.4-13.2,2-19.6C330.4,82.6,330.9,82.6,331.4,82.6z"/>
	<path id="XMLID_242_" class="st65" d="M449.3,87.3c2.2,1.8,1.2,4.3,1.2,6.5c0.2,5.4,0.1,10.9,0.1,17.1c-0.8-1.5-1.4-2.4-1.9-3.4
		c-2.3-7.3-7.3-12.9-11.8-18.8c-2.3-3-4-6.1-3.6-10c0.2-1.8,0.8-3.3,3-3.2c1.9,0.1,2.3,1.6,2.5,3.2c0.3,2.8-1.3,6.4,0.9,8.1
		C442.3,88.7,446.1,87.1,449.3,87.3z"/>
	<path id="XMLID_241_" class="st66" d="M462.3,86.7c0-2.7,0-5.3,0-8c0-1-0.6-2.5,1.1-2.9c1.6-0.3,2.7,0.2,3.6,1.8
		c1.3,2.3,1.6,4.6,1.5,7.2c-0.1,3.2,0.2,6.3-0.2,9.4c-0.3,2.4-2.1,3.9-4.5,3.8c-2.7-0.2-1.5-2.5-1.6-3.9
		C462.2,91.7,462.3,89.2,462.3,86.7z"/>
	<path id="XMLID_240_" class="st67" d="M236.5,163.5c0-0.1-0.3,0.5-1,0.7c-0.7,0.2-1.4,0-1.4-0.8c0-0.5,0.5-1.2,1-1.5
		C235.7,161.6,236.3,161.9,236.5,163.5z"/>
	<path id="XMLID_239_" class="st3" d="M136,42.7c1.9,0.2,2.6,1.1,3.1,2.3C137.5,45.3,136.8,44.2,136,42.7z"/>
	<path id="XMLID_238_" class="st57" d="M217.1,97.8c-4.4-3.2-0.4-6.9-1.1-10.4C218.6,90.7,214.8,94.5,217.1,97.8z"/>
	<path id="XMLID_237_" class="st68" d="M179.6,65.5c2,0,4,0,6,0c-1.3,0.7-2.7,1.3-4,2c-1.2-0.3-2.5,1.6-3.5,0.2
		C177.5,66.7,179.4,66.4,179.6,65.5z"/>
	<path id="XMLID_236_" class="st69" d="M193.6,86.4c0-0.3,0-0.7,0-1c0.8-1.2,1-3.5,3.3-1.4c0.7,0.6,2,1,1.5,2.2
		c-1,2.2-1.7-0.3-2.5-0.3C195.1,85.9,194.4,86.3,193.6,86.4z"/>
	<path id="XMLID_235_" class="st70" d="M206.4,99.3c-1.6-1.7-3.3-3.4-2.4-6.3C206.6,94.7,205.2,97.5,206.4,99.3z"/>
	<path id="XMLID_234_" class="st71" d="M217.6,128.4c0-1,0-2,0-3c0.9-1,2.2-1.6,2.5,0C220.3,126.3,221,129.5,217.6,128.4z"/>
	<path id="XMLID_233_" class="st72" d="M179.9,72.3c-0.3-1.5,0.6-2.3,1.8-2.8C182.7,71.5,182.6,72.7,179.9,72.3z"/>
	<path id="XMLID_232_" class="st73" d="M220.1,135.5c-0.6-2.5-0.5-3.7,1.5-4.9C221.1,132.4,220.7,133.5,220.1,135.5z"/>
	<path id="XMLID_231_" class="st3" d="M156.7,75.4c-0.5,2-1.7,2.4-3.7,2.9C153.9,76.4,154.9,75.5,156.7,75.4z"/>
	<path id="XMLID_230_" class="st3" d="M162.6,67.5c-0.1-0.7-1.7-1.1-0.8-1.8c0.7-0.5,2.6-0.8,2.9,0.4
		C165.1,67.2,163.6,67.3,162.6,67.5L162.6,67.5z"/>
	<path id="XMLID_229_" class="st3" d="M162.6,67.5c-0.1,1-0.4,2-1.7,1.8c-0.3-0.1-0.8-0.7-0.8-0.9C160.6,67.1,161.7,67.6,162.6,67.5
		L162.6,67.5z"/>
</g>
</svg>
